Roboto Serif Text-RegularCond 06rb.ufo
<glyph name="quotesingle" format="2">
  <advance width="202"/>
  <unicode hex="0027"/>
  <outline>
    <contour>
      <point x="143.0" y="710.0" type="line"/>
      <point x="143.0" y="634.0"/>
      <point x="125.0" y="597.0"/>
      <point x="125.0" y="471.0" type="curve"/>
      <point x="77.0" y="471.0" type="line"/>
      <point x="77.0" y="597.0"/>
      <point x="60.0" y="633.0"/>
      <point x="60.0" y="710.0" type="curve"/>
    </contour>
  </outline>
</glyph>
<glyph name="three" format="2">
  <advance width="462"/>
  <unicode hex="0033"/>
  <outline>
    <contour>
      <point x="216.0" y="291.0" type="line"/>
      <point x="376.0" y="291.0"/>
      <point x="430.0" y="211.0"/>
      <point x="430.0" y="111.0" type="curve" smooth="yes"/>
      <point x="430.0" y="-7.0"/>
      <point x="344.0" y="-90.0"/>
      <point x="225.0" y="-90.0" type="curve" smooth="yes"/>
      <point x="117.0" y="-90.0"/>
      <point x="49.0" y="-22.0"/>
      <point x="18.0" y="71.0" type="curve"/>
      <point x="62.0" y="107.0" type="line"/>
      <point x="86.0" y="37.0"/>
      <point x="134.0" y="-36.0"/>
      <point x="222.0" y="-36.0" type="curve" smooth="yes"/>
      <point x="295.0" y="-36.0"/>
      <point x="343.0" y="17.0"/>
      <point x="343.0" y="111.0" type="curve" smooth="yes"/>
      <point x="343.0" y="200.0"/>
      <point x="305.0" y="258.0"/>
      <point x="204.0" y="258.0" type="curve" smooth="yes"/>
      <point x="147.0" y="258.0" type="line"/>
      <point x="147.0" y="309.0" type="line"/>
      <point x="194.0" y="309.0" type="line" smooth="yes"/>
      <point x="276.0" y="309.0"/>
      <point x="324.0" y="353.0"/>
      <point x="324.0" y="442.0" type="curve" smooth="yes"/>
      <point x="324.0" y="529.0"/>
      <point x="280.0" y="565.0"/>
      <point x="224.0" y="565.0" type="curve" smooth="yes"/>
      <point x="164.0" y="565.0"/>
      <point x="125.0" y="528.0"/>
      <point x="101.0" y="483.0" type="curve"/>
      <point x="103.0" y="519.0"/>
      <point x="114.0" y="541.0"/>
      <point x="134.0" y="545.0" type="curve"/>
      <point x="134.0" y="439.0" type="line"/>
      <point x="55.0" y="439.0" type="line"/>
      <point x="55.0" y="528.0" type="line"/>
      <point x="81.0" y="570.0"/>
      <point x="144.0" y="618.0"/>
      <point x="228.0" y="618.0" type="curve" smooth="yes"/>
      <point x="332.0" y="618.0"/>
      <point x="409.0" y="553.0"/>
      <point x="409.0" y="454.0" type="curve" smooth="yes"/>
      <point x="409.0" y="348.0"/>
      <point x="319.0" y="281.0"/>
      <point x="202.0" y="281.0" type="curve"/>
      <point x="233.0" y="299.0" type="line"/>
      <point x="233.0" y="274.0" type="line"/>
    </contour>
  </outline>
</glyph>
<glyph name="less" format="2">
  <advance width="462"/>
  <unicode hex="003C"/>
  <outline>
    <contour>
      <point x="385.0" y="543.0" type="line"/>
      <point x="78.0" y="372.0" type="line"/>
      <point x="78.0" y="338.0" type="line"/>
      <point x="94.0" y="323.0" type="line"/>
      <point x="385.0" y="480.0" type="line"/>
    </contour>
    <contour>
      <point x="385.0" y="212.0" type="line"/>
      <point x="95.0" y="369.0" type="line"/>
      <point x="78.0" y="355.0" type="line"/>
      <point x="78.0" y="312.0" type="line"/>
      <point x="385.0" y="142.0" type="line"/>
    </contour>
  </outline>
</glyph>
<glyph name="j" format="2">
  <advance width="244"/>
  <unicode hex="006A"/>
  <outline>
    <contour>
      <point x="124" y="615" type="curve" smooth="yes" identifier="Sy3vTy2dvZ"/>
      <point x="160" y="615" identifier="Q4vF4BCfGS"/>
      <point x="184" y="633" identifier="VaFLdNb8ZD"/>
      <point x="184" y="677" type="curve" smooth="yes" identifier="iJshpHs6Bv"/>
      <point x="184" y="721" identifier="9qGqL7BvBx"/>
      <point x="160" y="738" identifier="uynXl4vowS"/>
      <point x="124" y="738" type="curve" smooth="yes" identifier="Ryhw0ZyBvR"/>
      <point x="88" y="738" identifier="eKsJj4VgcU"/>
      <point x="63" y="721" identifier="DK9FpnmaK3"/>
      <point x="63" y="677" type="curve" smooth="yes" identifier="Vv1ubZSI3H"/>
      <point x="63" y="633" identifier="VgAQ8Ehzxn"/>
      <point x="88" y="615" identifier="Z5vw3P14sQ"/>
    </contour>
    <contour>
      <point x="87" y="-69" type="line" identifier="j2gZvwM49F"/>
      <point x="87" y="-151" identifier="PV25HFHm2o"/>
      <point x="65" y="-180" identifier="ToILxT3YKV"/>
      <point x="14" y="-180" type="curve" smooth="yes" identifier="XET5hTYn8Q"/>
      <point x="-11" y="-180" identifier="Nj5l115IDo"/>
      <point x="-31" y="-176" identifier="RVNV9OhkqB"/>
      <point x="-50" y="-170" type="curve" identifier="XLFRkLWshm"/>
      <point x="-49" y="-224" type="line" identifier="X2iVrS5YRn"/>
      <point x="-33" y="-231" identifier="J4OweQUxoa"/>
      <point x="-3" y="-236" identifier="VAXGqiW2we"/>
      <point x="25" y="-236" type="curve" smooth="yes" identifier="01ax6TsO9K"/>
      <point x="122" y="-236" identifier="6uMYQx8tA5"/>
      <point x="174" y="-173" identifier="NxFLlXCZxx"/>
      <point x="174" y="-70" type="curve" smooth="yes" identifier="v07ftZGES9"/>
      <point x="174" y="508" type="line" identifier="MYMoSy69bF"/>
      <point x="27" y="508" type="line" identifier="fdNC01ma24"/>
      <point x="27" y="466" type="line" identifier="qr7YLrz0eq"/>
      <point x="38" y="464" type="line" smooth="yes" identifier="3BOYmIzLD7"/>
      <point x="72" y="458" identifier="pBLepwm8rG"/>
      <point x="87" y="450" identifier="W9wUOXRfH8"/>
      <point x="87" y="419" type="curve" smooth="yes" identifier="vzak11jo9A"/>
    </contour>
  </outline>
</glyph>
<glyph name="degree" format="2">
  <advance width="402"/>
  <unicode hex="00B0"/>
  <outline>
    <contour>
      <point x="288.0" y="559.0" type="curve" smooth="yes"/>
      <point x="288.0" y="493.0"/>
      <point x="253.0" y="448.0"/>
      <point x="201.0" y="448.0" type="curve" smooth="yes"/>
      <point x="150.0" y="448.0"/>
      <point x="114.0" y="493.0"/>
      <point x="114.0" y="559.0" type="curve" smooth="yes"/>
      <point x="114.0" y="625.0"/>
      <point x="150.0" y="669.0"/>
      <point x="201.0" y="669.0" type="curve" smooth="yes"/>
      <point x="253.0" y="669.0"/>
      <point x="288.0" y="625.0"/>
    </contour>
    <contour>
      <point x="44.0" y="559.0" type="curve" smooth="yes"/>
      <point x="44.0" y="458.0"/>
      <point x="114.0" y="389.0"/>
      <point x="201.0" y="389.0" type="curve" smooth="yes"/>
      <point x="289.0" y="389.0"/>
      <point x="358.0" y="458.0"/>
      <point x="358.0" y="559.0" type="curve" smooth="yes"/>
      <point x="358.0" y="660.0"/>
      <point x="289.0" y="729.0"/>
      <point x="201.0" y="729.0" type="curve" smooth="yes"/>
      <point x="114.0" y="729.0"/>
      <point x="44.0" y="660.0"/>
    </contour>
  </outline>
</glyph>
<glyph name="AE" format="2">
  <advance width="812"/>
  <unicode hex="00C6"/>
  <anchor x="525.0" y="741.0" name="top"/>
  <outline>
    <contour>
      <point x="215.0" y="300.0" type="line"/>
      <point x="187.0" y="249.0" type="line"/>
      <point x="412.0" y="249.0" type="line"/>
      <point x="412.0" y="300.0" type="line"/>
    </contour>
    <contour>
      <point x="462.0" y="387.0" type="curve"/>
      <point x="462.0" y="340.0" type="line"/>
      <point x="528.0" y="337.0"/>
      <point x="596.0" y="335.0"/>
      <point x="662.0" y="332.0" type="curve"/>
      <point x="662.0" y="394.0" type="line"/>
      <point x="596.0" y="392.0"/>
      <point x="528.0" y="390.0"/>
    </contour>
    <contour>
      <point x="321.0" y="0.0" type="line"/>
      <point x="766.0" y="0.0" type="line"/>
      <point x="766.0" y="211.0" type="line"/>
      <point x="714.0" y="211.0" type="line"/>
      <point x="707.0" y="96.0" type="line" smooth="yes"/>
      <point x="704.0" y="60.0"/>
      <point x="675.0" y="53.0"/>
      <point x="605.0" y="53.0" type="curve" smooth="yes"/>
      <point x="486.0" y="53.0" type="line"/>
      <point x="486.0" y="657.0" type="line"/>
      <point x="584.0" y="657.0" type="line" smooth="yes"/>
      <point x="652.0" y="657.0"/>
      <point x="681.0" y="650.0"/>
      <point x="684.0" y="614.0" type="curve" smooth="yes"/>
      <point x="691.0" y="524.0" type="line"/>
      <point x="741.0" y="524.0" type="line"/>
      <point x="741.0" y="710.0" type="line"/>
      <point x="240.0" y="710.0" type="line"/>
      <point x="240.0" y="666.0" type="line"/>
      <point x="250.0" y="666.0" type="line" smooth="yes"/>
      <point x="291.0" y="666.0"/>
      <point x="330.0" y="659.0"/>
      <point x="330.0" y="637.0" type="curve"/>
      <point x="69.0" y="87.0" type="line" smooth="yes"/>
      <point x="52.0" y="52.0"/>
      <point x="41.0" y="44.0"/>
      <point x="12.0" y="44.0" type="curve" smooth="yes"/>
      <point x="8.0" y="44.0" type="line"/>
      <point x="8.0" y="0.0" type="line"/>
      <point x="197.0" y="0.0" type="line"/>
      <point x="197.0" y="44.0" type="line"/>
      <point x="185.0" y="44.0" type="line" smooth="yes"/>
      <point x="155.0" y="44.0"/>
      <point x="119.0" y="51.0"/>
      <point x="119.0" y="62.0" type="curve"/>
      <point x="397.0" y="659.0" type="line"/>
      <point x="397.0" y="659.0" type="line"/>
      <point x="397.0" y="54.0" type="line"/>
      <point x="397.0" y="47.0"/>
      <point x="359.0" y="44.0"/>
      <point x="328.0" y="44.0" type="curve" smooth="yes"/>
      <point x="321.0" y="44.0" type="line"/>
    </contour>
  </outline>
</glyph>
<glyph name="Thorn" format="2">
  <advance width="539"/>
  <unicode hex="00DE"/>
  <outline>
    <contour>
      <point x="284.0" y="710.0" type="line"/>
      <point x="284.0" y="666.0" type="line"/>
      <point x="262.0" y="666.0" type="line" smooth="yes"/>
      <point x="235.0" y="666.0"/>
      <point x="201.0" y="663.0"/>
      <point x="201.0" y="656.0" type="curve" smooth="yes"/>
      <point x="201.0" y="54.0" type="line" smooth="yes"/>
      <point x="201.0" y="47.0"/>
      <point x="235.0" y="44.0"/>
      <point x="262.0" y="44.0" type="curve" smooth="yes"/>
      <point x="284.0" y="44.0" type="line"/>
      <point x="284.0" y="0.0" type="line"/>
      <point x="35.0" y="0.0" type="line"/>
      <point x="35.0" y="44.0" type="line"/>
      <point x="44.0" y="44.0" type="line" smooth="yes"/>
      <point x="83.0" y="44.0"/>
      <point x="111.0" y="51.0"/>
      <point x="111.0" y="80.0" type="curve" smooth="yes"/>
      <point x="111.0" y="630.0" type="line" smooth="yes"/>
      <point x="111.0" y="659.0"/>
      <point x="83.0" y="666.0"/>
      <point x="44.0" y="666.0" type="curve" smooth="yes"/>
      <point x="35.0" y="666.0" type="line"/>
      <point x="35.0" y="710.0" type="line"/>
    </contour>
    <contour>
      <point x="501.0" y="363.0" type="curve" smooth="yes"/>
      <point x="501.0" y="240.0"/>
      <point x="420.0" y="155.0"/>
      <point x="287.0" y="155.0" type="curve" smooth="yes"/>
      <point x="149.0" y="155.0" type="line"/>
      <point x="149.0" y="208.0" type="line"/>
      <point x="281.0" y="208.0" type="line" smooth="yes"/>
      <point x="365.0" y="208.0"/>
      <point x="406.0" y="270.0"/>
      <point x="406.0" y="362.0" type="curve" smooth="yes"/>
      <point x="406.0" y="455.0"/>
      <point x="365.0" y="510.0"/>
      <point x="284.0" y="510.0" type="curve" smooth="yes"/>
      <point x="149.0" y="510.0" type="line"/>
      <point x="160.0" y="563.0" type="line"/>
      <point x="292.0" y="563.0" type="line" smooth="yes"/>
      <point x="424.0" y="563.0"/>
      <point x="501.0" y="485.0"/>
    </contour>
  </outline>
</glyph>
<glyph name="aogonek" format="2">
  <advance width="453"/>
  <unicode hex="0105"/>
  <outline>
    <contour>
      <point x="202.0" y="-144.0" type="curve" smooth="yes"/>
      <point x="202.0" y="-201.0"/>
      <point x="240.0" y="-235.0"/>
      <point x="294.0" y="-235.0" type="curve" smooth="yes"/>
      <point x="340.0" y="-235.0"/>
      <point x="363.0" y="-216.0"/>
      <point x="385.0" y="-188.0" type="curve"/>
      <point x="359.0" y="-157.0" type="line"/>
      <point x="349.0" y="-171.0"/>
      <point x="334.0" y="-188.0"/>
      <point x="316.0" y="-188.0" type="curve" smooth="yes"/>
      <point x="297.0" y="-188.0"/>
      <point x="283.0" y="-171.0"/>
      <point x="283.0" y="-137.0" type="curve" smooth="yes"/>
      <point x="283.0" y="-93.0"/>
      <point x="303.0" y="-46.0"/>
      <point x="380.0" y="7.0" type="curve"/>
      <point x="353.0" y="32.0" type="line"/>
      <point x="260.0" y="-22.0"/>
      <point x="202.0" y="-75.0"/>
    </contour>
    <contour>
      <point x="442.0" y="0.0" type="line"/>
      <point x="442.0" y="41.0" type="line"/>
      <point x="442.0" y="41.0" type="line"/>
      <point x="405.0" y="41.0"/>
      <point x="378.0" y="48.0"/>
      <point x="378.0" y="77.0" type="curve" smooth="yes"/>
      <point x="378.0" y="361.0" type="line" smooth="yes"/>
      <point x="378.0" y="479.0"/>
      <point x="304.0" y="518.0"/>
      <point x="222.0" y="518.0" type="curve" smooth="yes"/>
      <point x="146.0" y="518.0"/>
      <point x="91.0" y="483.0"/>
      <point x="67.0" y="459.0" type="curve"/>
      <point x="67.0" y="361.0" type="line"/>
      <point x="146.0" y="361.0" type="line"/>
      <point x="146.0" y="460.0" type="line"/>
      <point x="123.0" y="450.0"/>
      <point x="105.0" y="429.0"/>
      <point x="112.0" y="400.0" type="curve"/>
      <point x="132.0" y="436.0"/>
      <point x="163.0" y="466.0"/>
      <point x="215.0" y="466.0" type="curve" smooth="yes"/>
      <point x="265.0" y="466.0"/>
      <point x="294.0" y="439.0"/>
      <point x="294.0" y="352.0" type="curve" smooth="yes"/>
      <point x="294.0" y="110.0" type="line"/>
      <point x="302.0" y="108.0" type="line"/>
      <point x="302.0" y="0.0" type="line"/>
    </contour>
    <contour>
      <point x="41.0" y="124.0" type="curve" smooth="yes"/>
      <point x="41.0" y="41.0"/>
      <point x="98.0" y="-10.0"/>
      <point x="172.0" y="-10.0" type="curve" smooth="yes"/>
      <point x="240.0" y="-10.0"/>
      <point x="288.0" y="37.0"/>
      <point x="313.0" y="109.0" type="curve"/>
      <point x="313.0" y="177.0" type="line"/>
      <point x="288.0" y="95.0"/>
      <point x="252.0" y="40.0"/>
      <point x="197.0" y="40.0" type="curve" smooth="yes"/>
      <point x="156.0" y="40.0"/>
      <point x="128.0" y="73.0"/>
      <point x="128.0" y="125.0" type="curve" smooth="yes"/>
      <point x="128.0" y="206.0"/>
      <point x="185.0" y="242.0"/>
      <point x="315.0" y="261.0" type="curve"/>
      <point x="315.0" y="307.0" type="line"/>
      <point x="134.0" y="282.0"/>
      <point x="41.0" y="234.0"/>
    </contour>
  </outline>
</glyph>
<glyph name="minute" format="2">
  <advance width="199"/>
  <unicode hex="2032"/>
  <outline>
    <contour>
      <point x="164.0" y="710.0" type="line"/>
      <point x="156.0" y="620.0"/>
      <point x="132.0" y="585.0"/>
      <point x="119.0" y="471.0" type="curve"/>
      <point x="71.0" y="471.0" type="line"/>
      <point x="85.0" y="610.0"/>
      <point x="73.0" y="648.0"/>
      <point x="81.0" y="710.0" type="curve"/>
    </contour>
  </outline>
</glyph>
<glyph name="won" format="2">
  <advance width="462"/>
  <unicode hex="20A9"/>
  <outline>
    <contour>
      <point x="2.0" y="710.0" type="line"/>
      <point x="2.0" y="666.0" type="line"/>
      <point x="7.0" y="666.0" type="line" smooth="yes"/>
      <point x="25.0" y="666.0"/>
      <point x="39.0" y="663.0"/>
      <point x="41.0" y="629.0" type="curve" smooth="yes"/>
      <point x="84.0" y="0.0" type="line"/>
      <point x="178.0" y="0.0" type="line"/>
      <point x="240.0" y="683.0" type="line"/>
      <point x="230.0" y="689.0" type="line"/>
      <point x="292.0" y="0.0" type="line"/>
      <point x="384.0" y="0.0" type="line"/>
      <point x="420.0" y="623.0" type="line" smooth="yes"/>
      <point x="422.0" y="657.0"/>
      <point x="438.0" y="666.0"/>
      <point x="455.0" y="666.0" type="curve" smooth="yes"/>
      <point x="460.0" y="666.0" type="line"/>
      <point x="460.0" y="710.0" type="line"/>
      <point x="333.0" y="710.0" type="line"/>
      <point x="333.0" y="666.0" type="line"/>
      <point x="337.0" y="666.0" type="line" smooth="yes"/>
      <point x="356.0" y="666.0"/>
      <point x="374.0" y="659.0"/>
      <point x="374.0" y="648.0" type="curve"/>
      <point x="340.0" y="19.0" type="line"/>
      <point x="344.0" y="22.0" type="line"/>
      <point x="281.0" y="710.0" type="line"/>
      <point x="197.0" y="710.0" type="line"/>
      <point x="135.0" y="13.0" type="line"/>
      <point x="142.0" y="16.0" type="line"/>
      <point x="101.0" y="656.0" type="line"/>
      <point x="101.0" y="663.0"/>
      <point x="120.0" y="666.0"/>
      <point x="136.0" y="666.0" type="curve" smooth="yes"/>
      <point x="142.0" y="666.0" type="line"/>
      <point x="142.0" y="710.0" type="line"/>
    </contour>
    <contour>
      <point x="2.0" y="453.0" type="line"/>
      <point x="2.0" y="406.0" type="line"/>
      <point x="96.0" y="406.0" type="line"/>
      <point x="103.0" y="406.0" type="line"/>
      <point x="190.0" y="406.0" type="line"/>
      <point x="197.0" y="453.0" type="line"/>
    </contour>
    <contour>
      <point x="289.0" y="406.0" type="line"/>
      <point x="379.0" y="406.0" type="line"/>
      <point x="386.0" y="406.0" type="line"/>
      <point x="460.0" y="406.0" type="line"/>
      <point x="460.0" y="453.0" type="line"/>
      <point x="282.0" y="453.0" type="line"/>
    </contour>
    <contour>
      <point x="171.0" y="240.0" type="line"/>
      <point x="300.0" y="240.0" type="line"/>
      <point x="296.0" y="288.0" type="line"/>
      <point x="232.0" y="288.0" type="line"/>
      <point x="180.0" y="288.0" type="line"/>
    </contour>
    <contour>
      <point x="91.0" y="288.0" type="line"/>
      <point x="2.0" y="288.0" type="line"/>
      <point x="2.0" y="240.0" type="line"/>
      <point x="99.0" y="240.0" type="line"/>
    </contour>
    <contour>
      <point x="374.0" y="240.0" type="line"/>
      <point x="460.0" y="240.0" type="line"/>
      <point x="460.0" y="288.0" type="line"/>
      <point x="386.0" y="288.0" type="line"/>
    </contour>
  </outline>
</glyph>
<glyph name="cedi" format="2">
  <advance width="462"/>
  <unicode hex="20B5"/>
  <outline>
    <contour>
      <point x="267.0" y="700.0" type="curve" smooth="yes"/>
      <point x="111.0" y="700.0"/>
      <point x="16.0" y="570.0"/>
      <point x="16.0" y="355.0" type="curve" smooth="yes"/>
      <point x="16.0" y="142.0"/>
      <point x="114.0" y="10.0"/>
      <point x="254.0" y="10.0" type="curve" smooth="yes"/>
      <point x="361.0" y="10.0"/>
      <point x="422.0" y="93.0"/>
      <point x="448.0" y="227.0" type="curve"/>
      <point x="395.0" y="254.0" type="line"/>
      <point x="374.0" y="137.0"/>
      <point x="334.0" y="66.0"/>
      <point x="261.0" y="66.0" type="curve" smooth="yes"/>
      <point x="163.0" y="66.0"/>
      <point x="106.0" y="172.0"/>
      <point x="106.0" y="355.0" type="curve" smooth="yes"/>
      <point x="106.0" y="545.0"/>
      <point x="159.0" y="648.0"/>
      <point x="268.0" y="648.0" type="curve" smooth="yes"/>
      <point x="331.0" y="648.0"/>
      <point x="369.0" y="612.0"/>
      <point x="388.0" y="576.0" type="curve"/>
      <point x="396.0" y="589.0"/>
      <point x="380.0" y="625.0"/>
      <point x="353.0" y="627.0" type="curve"/>
      <point x="353.0" y="516.0" type="line"/>
      <point x="434.0" y="516.0" type="line"/>
      <point x="434.0" y="633.0" type="line"/>
      <point x="416.0" y="656.0"/>
      <point x="353.0" y="700.0"/>
    </contour>
    <contour>
      <point x="224.0" y="790.0" type="line"/>
      <point x="224.0" y="680.0" type="line"/>
      <point x="226.0" y="671.0" type="line"/>
      <point x="226.0" y="47.0" type="line"/>
      <point x="224.0" y="34.0" type="line"/>
      <point x="224.0" y="-120.0" type="line"/>
      <point x="278.0" y="-120.0" type="line"/>
      <point x="278.0" y="36.0" type="line"/>
      <point x="276.0" y="44.0" type="line"/>
      <point x="276.0" y="673.0" type="line"/>
      <point x="278.0" y="681.0" type="line"/>
      <point x="278.0" y="790.0" type="line"/>
    </contour>
  </outline>
</glyph>
<glyph name="notequal" format="2">
  <advance width="462"/>
  <unicode hex="2260"/>
  <outline>
    <contour>
      <point x="317.0" y="566.0" type="line"/>
      <point x="59.0" y="87.0" type="line"/>
      <point x="128.0" y="87.0" type="line"/>
      <point x="387.0" y="566.0" type="line"/>
    </contour>
    <component base="equal" xOffset="-8" yOffset="1"/>
  </outline>
</glyph>
<glyph name="f_b" format="2">
  <advance width="848"/>
  <outline>
    <contour>
      <point x="720.0" y="257.0" type="curve" smooth="yes"/>
      <point x="720.0" y="128.0"/>
      <point x="681.0" y="42.0"/>
      <point x="603.0" y="42.0" type="curve" smooth="yes"/>
      <point x="541.0" y="42.0"/>
      <point x="494.0" y="93.0"/>
      <point x="458.0" y="193.0" type="curve"/>
      <point x="424.0" y="171.0" type="line"/>
      <point x="477.0" y="46.0"/>
      <point x="525.0" y="-10.0"/>
      <point x="611.0" y="-10.0" type="curve" smooth="yes"/>
      <point x="731.0" y="-10.0"/>
      <point x="811.0" y="99.0"/>
      <point x="811.0" y="257.0" type="curve" smooth="yes"/>
      <point x="811.0" y="414.0"/>
      <point x="734.0" y="518.0"/>
      <point x="618.0" y="518.0" type="curve" smooth="yes"/>
      <point x="531.0" y="518.0"/>
      <point x="485.0" y="456.0"/>
      <point x="428.0" y="332.0" type="curve"/>
      <point x="458.0" y="308.0" type="line"/>
      <point x="495.0" y="410.0"/>
      <point x="543.0" y="466.0"/>
      <point x="607.0" y="466.0" type="curve" smooth="yes"/>
      <point x="681.0" y="466.0"/>
      <point x="720.0" y="385.0"/>
    </contour>
    <contour>
      <point x="390.0" y="700.0" type="line"/>
      <point x="390.0" y="-3.0" type="line"/>
      <point x="447.0" y="-3.0" type="line"/>
      <point x="468.0" y="110.0" type="line"/>
      <point x="477.0" y="125.0" type="line"/>
      <point x="477.0" y="735.0" type="line"/>
      <point x="332.0" y="735.0" type="line"/>
    </contour>
    <contour>
      <point x="28.0" y="508.0" type="line"/>
      <point x="28.0" y="457.0" type="line"/>
      <point x="307.0" y="457.0" type="line"/>
      <point x="307.0" y="508.0" type="line"/>
    </contour>
    <contour>
      <point x="198.0" y="576.0" type="line" smooth="yes"/>
      <point x="198.0" y="677.0"/>
      <point x="235.0" y="701.0"/>
      <point x="290.0" y="701.0" type="curve" smooth="yes"/>
      <point x="350.0" y="701.0"/>
      <point x="388.0" y="677.0"/>
      <point x="414.0" y="633.0" type="curve"/>
      <point x="425.0" y="701.0" type="line"/>
      <point x="393.0" y="730.0"/>
      <point x="347.0" y="752.0"/>
      <point x="290.0" y="752.0" type="curve" smooth="yes"/>
      <point x="198.0" y="752.0"/>
      <point x="111.0" y="710.0"/>
      <point x="111.0" y="576.0" type="curve" smooth="yes"/>
      <point x="111.0" y="77.0" type="line" smooth="yes"/>
      <point x="111.0" y="48.0"/>
      <point x="85.0" y="41.0"/>
      <point x="43.0" y="41.0" type="curve" smooth="yes"/>
      <point x="33.0" y="41.0" type="line"/>
      <point x="33.0" y="0.0" type="line"/>
      <point x="274.0" y="0.0" type="line"/>
      <point x="274.0" y="41.0" type="line"/>
      <point x="264.0" y="41.0" type="line" smooth="yes"/>
      <point x="227.0" y="41.0"/>
      <point x="198.0" y="44.0"/>
      <point x="198.0" y="51.0" type="curve" smooth="yes"/>
    </contour>
  </outline>
</glyph>
<glyph name="f_f_j" format="2">
  <advance width="829"/>
  <outline>
    <contour>
      <point x="28.0" y="508.0" type="line"/>
      <point x="28.0" y="457.0" type="line"/>
      <point x="314.0" y="457.0" type="line"/>
      <point x="314.0" y="508.0" type="line"/>
    </contour>
    <contour>
      <point x="709.0" y="627.0" type="curve" smooth="yes"/>
      <point x="742.0" y="627.0"/>
      <point x="765.0" y="648.0"/>
      <point x="765.0" y="683.0" type="curve" smooth="yes"/>
      <point x="765.0" y="718.0"/>
      <point x="742.0" y="739.0"/>
      <point x="709.0" y="739.0" type="curve" smooth="yes"/>
      <point x="677.0" y="739.0"/>
      <point x="654.0" y="718.0"/>
      <point x="654.0" y="683.0" type="curve" smooth="yes"/>
      <point x="654.0" y="648.0"/>
      <point x="677.0" y="627.0"/>
    </contour>
    <contour>
      <point x="308.0" y="508.0" type="line"/>
      <point x="308.0" y="457.0" type="line"/>
      <point x="649.0" y="457.0" type="line"/>
      <point x="649.0" y="508.0" type="line"/>
    </contour>
    <contour>
      <point x="670.0" y="-51.0" type="line" smooth="yes"/>
      <point x="670.0" y="-150.0"/>
      <point x="638.0" y="-180.0"/>
      <point x="590.0" y="-180.0" type="curve" smooth="yes"/>
      <point x="565.0" y="-180.0"/>
      <point x="545.0" y="-174.0"/>
      <point x="527.0" y="-168.0" type="curve"/>
      <point x="527.0" y="-225.0" type="line"/>
      <point x="542.0" y="-231.0"/>
      <point x="569.0" y="-236.0"/>
      <point x="596.0" y="-236.0" type="curve" smooth="yes"/>
      <point x="680.0" y="-236.0"/>
      <point x="756.0" y="-196.0"/>
      <point x="756.0" y="-51.0" type="curve" smooth="yes"/>
      <point x="756.0" y="508.0" type="line"/>
      <point x="603.0" y="508.0" type="line"/>
      <point x="603.0" y="457.0" type="line"/>
      <point x="612.0" y="457.0" type="line" smooth="yes"/>
      <point x="653.0" y="457.0"/>
      <point x="670.0" y="441.0"/>
      <point x="670.0" y="412.0" type="curve" smooth="yes"/>
    </contour>
    <contour>
      <point x="198.0" y="51.0" type="curve"/>
      <point x="198.0" y="561.0" type="line" smooth="yes"/>
      <point x="198.0" y="662.0"/>
      <point x="229.0" y="688.0"/>
      <point x="271.0" y="688.0" type="curve" smooth="yes"/>
      <point x="294.0" y="688.0"/>
      <point x="314.0" y="679.0"/>
      <point x="329.0" y="671.0" type="curve"/>
      <point x="329.0" y="728.0" type="line"/>
      <point x="316.0" y="734.0"/>
      <point x="291.0" y="738.0"/>
      <point x="267.0" y="738.0" type="curve" smooth="yes"/>
      <point x="188.0" y="738.0"/>
      <point x="111.0" y="695.0"/>
      <point x="111.0" y="561.0" type="curve" smooth="yes"/>
      <point x="111.0" y="77.0" type="line" smooth="yes"/>
      <point x="111.0" y="48.0"/>
      <point x="85.0" y="41.0"/>
      <point x="43.0" y="41.0" type="curve" smooth="yes"/>
      <point x="33.0" y="41.0" type="line"/>
      <point x="33.0" y="0.0" type="line"/>
      <point x="262.0" y="0.0" type="line"/>
      <point x="262.0" y="41.0" type="line"/>
      <point x="260.0" y="41.0" type="line" smooth="yes"/>
      <point x="224.0" y="41.0"/>
      <point x="198.0" y="44.0"/>
    </contour>
    <contour>
      <point x="390.0" y="51.0" type="line"/>
      <point x="390.0" y="44.0"/>
      <point x="365.0" y="41.0"/>
      <point x="323.0" y="41.0" type="curve" smooth="yes"/>
      <point x="314.0" y="41.0" type="line"/>
      <point x="314.0" y="0.0" type="line"/>
      <point x="552.0" y="0.0" type="line"/>
      <point x="552.0" y="41.0" type="line"/>
      <point x="542.0" y="41.0" type="line" smooth="yes"/>
      <point x="506.0" y="41.0"/>
      <point x="477.0" y="44.0"/>
      <point x="477.0" y="51.0" type="curve" smooth="yes"/>
      <point x="477.0" y="575.0" type="line" smooth="yes"/>
      <point x="477.0" y="677.0"/>
      <point x="504.0" y="702.0"/>
      <point x="543.0" y="702.0" type="curve" smooth="yes"/>
      <point x="564.0" y="702.0"/>
      <point x="585.0" y="694.0"/>
      <point x="598.0" y="686.0" type="curve"/>
      <point x="598.0" y="742.0" type="line"/>
      <point x="586.0" y="748.0"/>
      <point x="561.0" y="752.0"/>
      <point x="539.0" y="752.0" type="curve" smooth="yes"/>
      <point x="464.0" y="752.0"/>
      <point x="390.0" y="709.0"/>
      <point x="390.0" y="575.0" type="curve"/>
    </contour>
  </outline>
</glyph>
<glyph name="f_i" format="2">
  <advance width="560"/>
  <outline>
    <contour>
      <point x="28.0" y="508.0" type="line"/>
      <point x="28.0" y="457.0" type="line"/>
      <point x="370.0" y="457.0" type="line"/>
      <point x="370.0" y="508.0" type="line"/>
    </contour>
    <contour>
      <point x="430.0" y="627.0" type="curve" smooth="yes"/>
      <point x="463.0" y="627.0"/>
      <point x="486.0" y="648.0"/>
      <point x="486.0" y="683.0" type="curve" smooth="yes"/>
      <point x="486.0" y="718.0"/>
      <point x="463.0" y="739.0"/>
      <point x="430.0" y="739.0" type="curve" smooth="yes"/>
      <point x="398.0" y="739.0"/>
      <point x="375.0" y="718.0"/>
      <point x="375.0" y="683.0" type="curve" smooth="yes"/>
      <point x="375.0" y="648.0"/>
      <point x="398.0" y="627.0"/>
    </contour>
    <contour>
      <point x="326.0" y="0.0" type="line"/>
      <point x="542.0" y="0.0" type="line"/>
      <point x="542.0" y="41.0" type="line"/>
      <point x="541.0" y="41.0" type="line" smooth="yes"/>
      <point x="504.0" y="41.0"/>
      <point x="477.0" y="48.0"/>
      <point x="477.0" y="77.0" type="curve" smooth="yes"/>
      <point x="477.0" y="508.0" type="line"/>
      <point x="325.0" y="508.0" type="line"/>
      <point x="325.0" y="457.0" type="line"/>
      <point x="334.0" y="457.0" type="line" smooth="yes"/>
      <point x="374.0" y="457.0"/>
      <point x="390.0" y="441.0"/>
      <point x="390.0" y="412.0" type="curve"/>
      <point x="390.0" y="51.0" type="line"/>
      <point x="390.0" y="44.0"/>
      <point x="356.0" y="41.0"/>
      <point x="334.0" y="41.0" type="curve" smooth="yes"/>
      <point x="326.0" y="41.0" type="line"/>
    </contour>
    <contour>
      <point x="273.0" y="0.0" type="line"/>
      <point x="273.0" y="41.0" type="line"/>
      <point x="263.0" y="41.0" type="line" smooth="yes"/>
      <point x="226.0" y="41.0"/>
      <point x="198.0" y="44.0"/>
      <point x="198.0" y="51.0" type="curve"/>
      <point x="198.0" y="575.0" type="line" smooth="yes"/>
      <point x="198.0" y="677.0"/>
      <point x="224.0" y="702.0"/>
      <point x="264.0" y="702.0" type="curve" smooth="yes"/>
      <point x="284.0" y="702.0"/>
      <point x="305.0" y="694.0"/>
      <point x="319.0" y="686.0" type="curve"/>
      <point x="319.0" y="742.0" type="line"/>
      <point x="307.0" y="748.0"/>
      <point x="282.0" y="752.0"/>
      <point x="260.0" y="752.0" type="curve" smooth="yes"/>
      <point x="184.0" y="752.0"/>
      <point x="111.0" y="709.0"/>
      <point x="111.0" y="575.0" type="curve" smooth="yes"/>
      <point x="111.0" y="77.0" type="line" smooth="yes"/>
      <point x="111.0" y="48.0"/>
      <point x="85.0" y="41.0"/>
      <point x="43.0" y="41.0" type="curve" smooth="yes"/>
      <point x="33.0" y="41.0" type="line"/>
      <point x="33.0" y="0.0" type="line"/>
    </contour>
  </outline>
</glyph>
<glyph name="f_k" format="2">
  <advance width="826"/>
  <outline>
    <contour>
      <point x="808.0" y="0.0" type="line"/>
      <point x="808.0" y="42.0" type="line"/>
      <point x="806.0" y="42.0" type="line"/>
      <point x="776.0" y="42.0"/>
      <point x="751.0" y="48.0"/>
      <point x="729.0" y="80.0" type="curve" smooth="yes"/>
      <point x="566.0" y="305.0" type="line"/>
      <point x="560.0" y="267.0" type="line"/>
      <point x="687.0" y="417.0" type="line" smooth="yes"/>
      <point x="716.0" y="451.0"/>
      <point x="747.0" y="466.0"/>
      <point x="780.0" y="466.0" type="curve"/>
      <point x="782.0" y="466.0" type="line"/>
      <point x="782.0" y="508.0" type="line"/>
      <point x="576.0" y="508.0" type="line"/>
      <point x="576.0" y="466.0" type="line"/>
      <point x="579.0" y="466.0" type="line"/>
      <point x="603.0" y="466.0"/>
      <point x="645.0" y="463.0"/>
      <point x="645.0" y="448.0" type="curve"/>
      <point x="498.0" y="275.0" type="line"/>
      <point x="498.0" y="270.0" type="line"/>
      <point x="645.0" y="52.0" type="line"/>
      <point x="645.0" y="45.0"/>
      <point x="610.0" y="42.0"/>
      <point x="589.0" y="42.0" type="curve"/>
      <point x="587.0" y="42.0" type="line"/>
      <point x="587.0" y="0.0" type="line"/>
    </contour>
    <contour>
      <point x="28.0" y="508.0" type="line"/>
      <point x="28.0" y="457.0" type="line"/>
      <point x="307.0" y="457.0" type="line"/>
      <point x="307.0" y="508.0" type="line"/>
    </contour>
    <contour>
      <point x="535.0" y="0.0" type="line"/>
      <point x="535.0" y="41.0" type="line"/>
      <point x="532.0" y="41.0" type="line" smooth="yes"/>
      <point x="511.0" y="41.0"/>
      <point x="477.0" y="44.0"/>
      <point x="477.0" y="51.0" type="curve"/>
      <point x="477.0" y="735.0" type="line"/>
      <point x="347.0" y="735.0" type="line"/>
      <point x="390.0" y="700.0" type="line"/>
      <point x="390.0" y="51.0" type="line"/>
      <point x="390.0" y="44.0"/>
      <point x="356.0" y="41.0"/>
      <point x="334.0" y="41.0" type="curve" smooth="yes"/>
      <point x="326.0" y="41.0" type="line"/>
      <point x="326.0" y="0.0" type="line"/>
    </contour>
    <contour>
      <point x="198.0" y="51.0" type="curve" smooth="yes"/>
      <point x="198.0" y="576.0" type="line" smooth="yes"/>
      <point x="198.0" y="677.0"/>
      <point x="235.0" y="701.0"/>
      <point x="290.0" y="701.0" type="curve" smooth="yes"/>
      <point x="342.0" y="701.0"/>
      <point x="381.0" y="685.0"/>
      <point x="414.0" y="633.0" type="curve"/>
      <point x="425.0" y="701.0" type="line"/>
      <point x="393.0" y="730.0"/>
      <point x="347.0" y="752.0"/>
      <point x="290.0" y="752.0" type="curve" smooth="yes"/>
      <point x="198.0" y="752.0"/>
      <point x="111.0" y="710.0"/>
      <point x="111.0" y="576.0" type="curve" smooth="yes"/>
      <point x="111.0" y="77.0" type="line"/>
      <point x="111.0" y="48.0"/>
      <point x="85.0" y="41.0"/>
      <point x="43.0" y="41.0" type="curve" smooth="yes"/>
      <point x="33.0" y="41.0" type="line"/>
      <point x="33.0" y="0.0" type="line"/>
      <point x="273.0" y="0.0" type="line"/>
      <point x="273.0" y="41.0" type="line"/>
      <point x="263.0" y="41.0" type="line" smooth="yes"/>
      <point x="226.0" y="41.0"/>
      <point x="198.0" y="44.0"/>
    </contour>
  </outline>
</glyph>
<glyph name="nine.oldtab" format="2">
  <advance width="462"/>
  <outline>
    <contour>
      <point x="70.0" y="-98.0" type="line"/>
      <point x="245.0" y="-87.0"/>
      <point x="345.0" y="41.0"/>
      <point x="345.0" y="251.0" type="curve" smooth="yes"/>
      <point x="345.0" y="429.0"/>
      <point x="297.0" y="504.0"/>
      <point x="223.0" y="504.0" type="curve" smooth="yes"/>
      <point x="155.0" y="504.0"/>
      <point x="114.0" y="437.0"/>
      <point x="114.0" y="335.0" type="curve" smooth="yes"/>
      <point x="114.0" y="242.0"/>
      <point x="147.0" y="175.0"/>
      <point x="215.0" y="175.0" type="curve" smooth="yes"/>
      <point x="284.0" y="175.0"/>
      <point x="331.0" y="244.0"/>
      <point x="358.0" y="331.0" type="curve"/>
      <point x="368.0" y="284.0" type="line"/>
      <point x="349.0" y="204.0"/>
      <point x="287.0" y="121.0"/>
      <point x="200.0" y="121.0" type="curve" smooth="yes"/>
      <point x="101.0" y="121.0"/>
      <point x="25.0" y="205.0"/>
      <point x="25.0" y="335.0" type="curve" smooth="yes"/>
      <point x="25.0" y="464.0"/>
      <point x="108.0" y="558.0"/>
      <point x="222.0" y="558.0" type="curve" smooth="yes"/>
      <point x="344.0" y="558.0"/>
      <point x="432.0" y="456.0"/>
      <point x="432.0" y="254.0" type="curve" smooth="yes"/>
      <point x="432.0" y="30.0"/>
      <point x="300.0" y="-137.0"/>
      <point x="79.0" y="-152.0" type="curve"/>
    </contour>
  </outline>
</glyph>
<glyph name="parenleft.uc" format="2">
  <advance width="292"/>
  <outline>
    <contour>
      <point x="123.0" y="363.0" type="curve" smooth="yes"/>
      <point x="123.0" y="160.0"/>
      <point x="203.0" y="39.0"/>
      <point x="273.0" y="-36.0" type="curve"/>
      <point x="273.0" y="-39.0" type="line"/>
      <point x="211.0" y="-39.0" type="line"/>
      <point x="118.0" y="33.0"/>
      <point x="40.0" y="161.0"/>
      <point x="40.0" y="363.0" type="curve" smooth="yes"/>
      <point x="40.0" y="546.0"/>
      <point x="118.0" y="675.0"/>
      <point x="211.0" y="749.0" type="curve"/>
      <point x="273.0" y="749.0" type="line"/>
      <point x="273.0" y="746.0" type="line"/>
      <point x="203.0" y="669.0"/>
      <point x="123.0" y="547.0"/>
    </contour>
  </outline>
</glyph>
<glyph name="rupeeIndian" format="2">
  <advance width="462"/>
  <outline>
    <contour>
      <point x="55.0" y="518.0" type="line"/>
      <point x="55.0" y="471.0" type="line"/>
      <point x="445.0" y="471.0" type="line"/>
      <point x="445.0" y="518.0" type="line"/>
    </contour>
    <contour>
      <point x="92.0" y="281.0" type="line"/>
      <point x="114.0" y="281.0" type="line" smooth="yes"/>
      <point x="258.0" y="281.0"/>
      <point x="347.0" y="369.0"/>
      <point x="347.0" y="498.0" type="curve" smooth="yes"/>
      <point x="347.0" y="588.0"/>
      <point x="297.0" y="656.0"/>
      <point x="186.0" y="676.0" type="curve"/>
      <point x="157.0" y="662.0" type="line"/>
      <point x="445.0" y="662.0" type="line"/>
      <point x="445.0" y="710.0" type="line"/>
      <point x="55.0" y="710.0" type="line"/>
      <point x="55.0" y="657.0" type="line"/>
      <point x="117.0" y="657.0" type="line" smooth="yes"/>
      <point x="209.0" y="657.0"/>
      <point x="255.0" y="597.0"/>
      <point x="255.0" y="498.0" type="curve" smooth="yes"/>
      <point x="255.0" y="396.0"/>
      <point x="214.0" y="329.0"/>
      <point x="109.0" y="329.0" type="curve" smooth="yes"/>
      <point x="55.0" y="329.0" type="line"/>
      <point x="55.0" y="290.0" type="line"/>
      <point x="288.0" y="0.0" type="line"/>
      <point x="405.0" y="0.0" type="line"/>
      <point x="405.0" y="44.0" type="line"/>
      <point x="395.0" y="44.0" type="line" smooth="yes"/>
      <point x="370.0" y="44.0"/>
      <point x="356.0" y="51.0"/>
      <point x="338.0" y="72.0" type="curve" smooth="yes"/>
      <point x="137.0" y="314.0" type="line"/>
    </contour>
  </outline>
</glyph>
<glyph name="tilde.uc" format="2">
  <advance width="412"/>
  <anchor x="206.0" y="694.0" name="_top"/>
  <outline>
    <contour>
      <point x="257.0" y="766.0" type="curve" smooth="yes"/>
      <point x="304.0" y="766.0"/>
      <point x="338.0" y="804.0"/>
      <point x="350.0" y="869.0" type="curve"/>
      <point x="306.0" y="886.0" type="line"/>
      <point x="297.0" y="850.0"/>
      <point x="287.0" y="827.0"/>
      <point x="266.0" y="827.0" type="curve" smooth="yes"/>
      <point x="232.0" y="827.0"/>
      <point x="208.0" y="883.0"/>
      <point x="156.0" y="883.0" type="curve" smooth="yes"/>
      <point x="106.0" y="883.0"/>
      <point x="79.0" y="848.0"/>
      <point x="67.0" y="780.0" type="curve"/>
      <point x="112.0" y="763.0" type="line"/>
      <point x="117.0" y="801.0"/>
      <point x="128.0" y="823.0"/>
      <point x="148.0" y="823.0" type="curve" smooth="yes"/>
      <point x="177.0" y="823.0"/>
      <point x="200.0" y="766.0"/>
    </contour>
  </outline>
</glyph>
<glyph name="whitetriangle" format="2">
  <advance width="532"/>
  <outline>
    <contour>
      <point x="54.0" y="91.0" type="line"/>
      <point x="274.0" y="464.0" type="line"/>
      <point x="495.0" y="91.0" type="line"/>
    </contour>
    <contour>
      <point x="130.0" y="125.0" type="line"/>
      <point x="124.0" y="141.0" type="line"/>
      <point x="425.0" y="141.0" type="line"/>
      <point x="419.0" y="125.0" type="line"/>
      <point x="270.0" y="380.0" type="line"/>
      <point x="279.0" y="380.0" type="line"/>
    </contour>
  </outline>
</glyph>
